<?xml version="1.0" standalone="no"?>
<!DOCTYPE svg PUBLIC "-//W3C//DTD SVG 20010904//EN"
 "http://www.w3.org/TR/2001/REC-SVG-20010904/DTD/svg10.dtd">
<svg version="1.0" xmlns="http://www.w3.org/2000/svg"
 width="512.000000pt" height="512.000000pt" viewBox="0 0 512.000000 512.000000"
 preserveAspectRatio="xMidYMid meet">
<metadata>
Created by potrace 1.14, written by Peter Selinger 2001-2017
</metadata>
<g transform="translate(0.000000,512.000000) scale(0.100000,-0.100000)"
fill="#000000" stroke="none">
<path d="M2354 5109 c-491 -37 -968 -224 -1374 -537 -109 -85 -347 -323 -432
-432 -263 -342 -439 -737 -508 -1145 -122 -716 60 -1434 509 -2015 80 -104
309 -336 410 -415 369 -291 775 -466 1241 -537 194 -30 529 -30 725 0 456 70
852 240 1215 521 104 80 336 309 416 411 292 371 476 804 540 1270 24 170 24
501 0 665 -57 399 -192 758 -404 1075 -521 782 -1402 1211 -2338 1139z m339
-279 c561 -36 1048 -250 1446 -635 369 -357 596 -800 672 -1310 25 -168 27
-460 4 -625 -73 -520 -303 -973 -677 -1336 -395 -381 -888 -599 -1438 -633
-542 -34 -1065 122 -1507 450 -113 84 -311 274 -400 384 -265 329 -434 726
-494 1165 -15 113 -15 422 0 540 38 282 113 526 237 771 184 362 488 688 845
906 301 183 669 300 1019 322 63 5 122 9 130 9 8 1 82 -3 163 -8z"/>
<path d="M2295 4054 c-82 -45 -105 -92 -105 -218 l0 -94 -49 -31 c-75 -48
-191 -176 -233 -256 -69 -134 -97 -288 -78 -441 26 -208 120 -368 291 -495
l69 -52 0 -186 0 -186 -30 36 c-37 46 -86 69 -144 69 -61 0 -104 -19 -143 -63
-47 -53 -58 -104 -45 -204 29 -218 147 -414 320 -528 l42 -28 0 -94 c0 -126
24 -175 107 -217 39 -20 112 -21 156 -2 30 12 87 67 101 98 5 11 7 11 12 0 14
-31 71 -86 101 -98 82 -35 182 -5 230 68 25 37 29 54 33 144 l5 102 60 44
c196 145 295 337 296 578 1 123 -4 158 -37 262 -43 131 -129 246 -256 340
l-68 51 0 186 0 186 31 -38 c41 -49 77 -67 138 -67 61 0 97 13 134 48 58 55
71 107 56 224 -27 216 -144 409 -316 523 l-43 28 0 89 c0 127 -25 180 -104
220 -82 42 -201 8 -243 -69 -10 -18 -20 -33 -23 -33 -3 0 -12 13 -21 29 -9 15
-33 41 -54 57 -47 35 -141 44 -190 18z m152 -54 c48 -29 65 -62 71 -140 l5
-70 38 0 39 0 0 58 c0 34 7 71 18 92 53 106 192 105 248 -2 9 -18 14 -61 14
-127 l0 -99 47 -28 c27 -15 82 -62 124 -104 120 -120 189 -282 189 -445 0 -81
-12 -111 -59 -142 -42 -29 -104 -30 -148 -3 -42 25 -51 45 -69 148 -15 86 -38
151 -68 194 -15 21 -16 -10 -16 -344 l0 -367 63 -42 c128 -87 226 -215 270
-354 19 -59 22 -93 22 -215 0 -132 -3 -152 -28 -223 -15 -43 -45 -107 -68
-142 -44 -70 -148 -172 -216 -212 l-43 -25 0 -100 c0 -84 -3 -106 -22 -139
-38 -68 -125 -89 -189 -46 -46 31 -69 80 -69 150 l0 57 -39 0 -38 0 -5 -70
c-6 -78 -23 -111 -71 -140 -64 -39 -154 -15 -189 51 -14 26 -18 56 -18 134 l0
101 -64 42 c-161 106 -268 280 -296 482 -14 101 -3 147 45 189 85 75 224 12
225 -101 1 -71 58 -238 82 -238 4 0 8 162 8 359 l0 360 -57 37 c-100 66 -188
164 -238 268 -53 110 -67 178 -66 310 0 120 25 229 73 318 40 76 148 191 227
243 l60 40 1 100 c0 78 4 108 18 134 35 66 125 90 189 51z"/>
<path d="M2520 3105 l0 -405 40 0 40 0 0 405 0 405 -40 0 -40 0 0 -405z"/>
<path d="M2215 3316 c-61 -92 -76 -242 -35 -348 11 -31 30 -67 40 -80 19 -23
19 -21 20 215 0 130 -2 237 -5 237 -2 0 -12 -11 -20 -24z"/>
<path d="M2520 2015 l0 -405 40 0 40 0 0 405 0 405 -40 0 -40 0 0 -405z"/>
<path d="M2880 2013 c1 -236 1 -238 20 -215 53 64 77 219 50 323 -11 41 -55
129 -65 129 -3 0 -5 -107 -5 -237z"/>
</g>
</svg>
