<svg width="641" height="80" viewBox="0 0 641 120" xmlns="http://www.w3.org/2000/svg">
    <path fill="#E13B3B" d="M22.701 103.768L0.685 97.752L5.549 79.192L24.493 84.056L38.829 82.776V42.072L58.157 36.824V81.112L59.949 100.184L22.701 103.768ZM9.517 58.456L7.085 49.112L26.029 43.992L28.461 53.208L9.517 58.456ZM89.508 82.392L64.42 75.096V74.968V48.344H70.308L74.916 31.064L112.292 41.304L110.372 48.344V105.688L91.044 110.936V76.888L89.508 82.392ZM83.748 65.752L91.044 67.8V55.64L83.748 53.592V65.752ZM112.679 87.896L107.687 69.208L116.263 66.904V42.072L135.591 36.824V67.8L139.047 80.728L112.679 87.896ZM116.775 103.128L114.343 93.784L133.287 88.664L135.719 97.88L116.775 103.128ZM116.775 116.056L114.343 106.712L133.287 101.592L135.719 110.808L116.775 116.056ZM137.801 87.896L132.809 69.208L141.513 66.776V12.888L160.841 7.64V75.992L162.249 81.24L137.801 87.896ZM163.179 88.408L158.187 69.72L166.635 67.416V45.272L164.843 38.36L199.659 29.4L203.627 45.016H211.179V75.992L212.587 81.24L188.139 87.896L186.603 82.008L163.179 88.408ZM185.963 68.44L191.851 66.776V51.288L185.963 52.824V68.312V68.44ZM213.301 87.896L208.309 69.208L217.013 66.776V12.888L236.341 7.64V75.992L237.749 81.24L213.301 87.896ZM243.834 87.384V25.56L238.842 6.87199L261.37 0.727997L266.362 19.416L263.162 20.312V82.008L243.834 87.384ZM294.54 86.36L289.42 67.416L343.564 62.424L299.532 58.2L301.324 39L355.084 43.992L353.548 61.656L358.54 80.344L316.556 84.312L323.468 94.04L307.468 105.048L294.54 86.36ZM357.554 87.896L352.562 69.208L361.266 66.776V42.072L380.594 36.824V75.992L382.002 81.24L357.554 87.896ZM362.418 103.128L359.986 93.784L378.93 88.664L381.362 97.88L362.418 103.128ZM385.795 110.936V42.072L405.123 36.824V105.688L385.795 110.936ZM407.429 87.896L402.437 69.208L411.013 66.904V42.072L430.341 36.824V67.8L433.797 80.728L407.429 87.896ZM411.525 103.128L409.093 93.784L428.037 88.664L430.469 97.88L411.525 103.128ZM411.525 116.056L409.093 106.712L428.037 101.592L430.469 110.808L411.525 116.056ZM432.551 87.384L427.559 68.696L436.263 66.264V54.872L455.591 49.624V67.928L461.479 66.264V48.472L480.807 43.224V67.928L486.695 66.264V42.072L506.023 36.824V75.48L507.431 80.728L482.983 87.384L481.319 80.984L457.767 87.384L456.103 80.984L432.551 87.384ZM553.826 103.768L531.81 97.752L536.674 79.192L555.618 84.056L569.954 82.776V42.072L589.282 36.824V81.112L591.074 100.184L553.826 103.768ZM540.642 58.456L538.21 49.112L557.154 43.992L559.586 53.208L540.642 58.456ZM591.554 88.408L586.562 69.72L595.01 67.416V45.272L593.218 38.36L628.034 29.4L632.002 45.016H639.554V75.992L640.962 81.24L616.514 87.896L614.978 82.008L591.554 88.408ZM614.338 68.44L620.226 66.776V51.288L614.338 52.824V68.312V68.44Z" />
</svg>
