<svg width="102" height="29" viewBox="0 0 102 29" fill="none" xmlns="http://www.w3.org/2000/svg">
<path d="M1.82546 15.2242L1.87346 9.84815L1.20146 2.79215L17.6655 1.25615L18.3375 8.45615L6.62546 9.56015L20.4495 15.8962L17.1855 22.3762L13.8735 28.7122L0.913459 26.4082L3.84146 19.4962L15.4575 21.6082L1.82546 15.2722L1.87346 15.2242H1.82546ZM39.7706 28.6162L21.7706 23.6722L23.3546 17.9122V8.12015L21.9146 7.73615L23.8346 0.72815L40.2986 5.24015V21.2242L41.6426 21.6082L39.7706 28.6162ZM30.6026 18.5842L33.0506 19.2562V10.7602L30.6026 10.0882V18.5842ZM50.2005 14.1202L44.0085 12.3922L45.4005 7.16015L51.6405 8.88815L50.2005 14.1202ZM50.2005 27.4162L44.0085 25.6882L45.4005 20.4562L51.6405 22.1842L50.2005 27.4162ZM61.9192 15.2242L61.9672 9.84815L61.2952 2.79215L77.7592 1.25615L78.4312 8.45615L66.7192 9.56015L80.5432 15.8962L77.2792 22.3762L73.9672 28.7122L61.0072 26.4082L63.9352 19.4962L75.5512 21.6082L61.9192 15.2722L61.9672 15.2242H61.9192ZM99.8643 28.6162L81.8643 23.6722L83.4483 17.9122V8.12015L82.0083 7.73615L83.9283 0.72815L100.392 5.24015V21.2242L101.736 21.6082L99.8643 28.6162ZM90.6963 18.5842L93.1443 19.2562V10.7602L90.6963 10.0882V18.5842Z" fill="black"/>
</svg>
